<mxfile host="app.diagrams.net" agent="Mozilla/5.0 (Macintosh; Intel Mac OS X 10_15_7) AppleWebKit/537.36 (KHTML, like Gecko) Chrome/135.0.0.0 Safari/537.36" version="26.2.14">
  <diagram name="Page-1" id="e7e014a7-5840-1c2e-5031-d8a46d1fe8dd">
    <mxGraphModel dx="998" dy="759" grid="1" gridSize="10" guides="1" tooltips="1" connect="1" arrows="1" fold="1" page="1" pageScale="1" pageWidth="1169" pageHeight="826" background="none" math="0" shadow="0">
      <root>
        <mxCell id="0" />
        <mxCell id="1" parent="0" />
        <mxCell id="oJ4jJjxVJxxPxz0Rxdeq-41" value="&lt;b&gt;1. &lt;/b&gt;Clone template-repo" style="rounded=1;whiteSpace=wrap;html=1;" vertex="1" parent="1">
          <mxGeometry x="120" y="320" width="120" height="60" as="geometry" />
        </mxCell>
        <mxCell id="oJ4jJjxVJxxPxz0Rxdeq-43" value="&lt;b&gt;2. &lt;/b&gt;Collect user input" style="rounded=1;whiteSpace=wrap;html=1;" vertex="1" parent="1">
          <mxGeometry x="200" y="413" width="120" height="60" as="geometry" />
        </mxCell>
        <mxCell id="oJ4jJjxVJxxPxz0Rxdeq-44" value="&lt;b&gt;3.&lt;/b&gt;&amp;nbsp;Add, move and generate necessary files" style="rounded=1;whiteSpace=wrap;html=1;" vertex="1" parent="1">
          <mxGeometry x="280" y="320" width="120" height="60" as="geometry" />
        </mxCell>
        <mxCell id="oJ4jJjxVJxxPxz0Rxdeq-47" value="&lt;b&gt;4. &lt;/b&gt;Init git and push files to remote" style="rounded=1;whiteSpace=wrap;html=1;" vertex="1" parent="1">
          <mxGeometry x="360" y="413" width="120" height="60" as="geometry" />
        </mxCell>
        <mxCell id="oJ4jJjxVJxxPxz0Rxdeq-51" value="&lt;b&gt;5.&lt;/b&gt; Generate cloud resources" style="rounded=1;whiteSpace=wrap;html=1;" vertex="1" parent="1">
          <mxGeometry x="440" y="320" width="120" height="60" as="geometry" />
        </mxCell>
        <mxCell id="oJ4jJjxVJxxPxz0Rxdeq-54" value="&lt;b&gt;6.&lt;/b&gt;&amp;nbsp;Set environment secrets and variables" style="rounded=1;whiteSpace=wrap;html=1;" vertex="1" parent="1">
          <mxGeometry x="520" y="413" width="120" height="60" as="geometry" />
        </mxCell>
        <mxCell id="oJ4jJjxVJxxPxz0Rxdeq-71" style="edgeStyle=orthogonalEdgeStyle;rounded=0;orthogonalLoop=1;jettySize=auto;html=1;exitX=1;exitY=0.5;exitDx=0;exitDy=0;" edge="1" parent="1" source="oJ4jJjxVJxxPxz0Rxdeq-56" target="oJ4jJjxVJxxPxz0Rxdeq-70">
          <mxGeometry relative="1" as="geometry" />
        </mxCell>
        <mxCell id="oJ4jJjxVJxxPxz0Rxdeq-56" value="&lt;b&gt;7. &lt;/b&gt;Initiate&amp;nbsp;CI/CD pipeline" style="rounded=1;whiteSpace=wrap;html=1;" vertex="1" parent="1">
          <mxGeometry x="600" y="320" width="120" height="60" as="geometry" />
        </mxCell>
        <mxCell id="oJ4jJjxVJxxPxz0Rxdeq-58" value="" style="endArrow=classic;html=1;rounded=0;exitX=0.75;exitY=0;exitDx=0;exitDy=0;entryX=0.25;entryY=1;entryDx=0;entryDy=0;" edge="1" parent="1" source="oJ4jJjxVJxxPxz0Rxdeq-43" target="oJ4jJjxVJxxPxz0Rxdeq-44">
          <mxGeometry width="50" height="50" relative="1" as="geometry">
            <mxPoint x="320" y="413" as="sourcePoint" />
            <mxPoint x="340" y="446" as="targetPoint" />
          </mxGeometry>
        </mxCell>
        <mxCell id="oJ4jJjxVJxxPxz0Rxdeq-62" value="" style="endArrow=classic;html=1;rounded=0;exitX=0.75;exitY=1;exitDx=0;exitDy=0;entryX=0.25;entryY=0;entryDx=0;entryDy=0;" edge="1" parent="1" source="oJ4jJjxVJxxPxz0Rxdeq-41" target="oJ4jJjxVJxxPxz0Rxdeq-43">
          <mxGeometry width="50" height="50" relative="1" as="geometry">
            <mxPoint x="210" y="380" as="sourcePoint" />
            <mxPoint x="230" y="347" as="targetPoint" />
          </mxGeometry>
        </mxCell>
        <mxCell id="oJ4jJjxVJxxPxz0Rxdeq-63" value="" style="endArrow=classic;html=1;rounded=0;exitX=0.75;exitY=1;exitDx=0;exitDy=0;entryX=0.25;entryY=0;entryDx=0;entryDy=0;" edge="1" parent="1">
          <mxGeometry width="50" height="50" relative="1" as="geometry">
            <mxPoint x="370" y="380" as="sourcePoint" />
            <mxPoint x="390" y="413" as="targetPoint" />
          </mxGeometry>
        </mxCell>
        <mxCell id="oJ4jJjxVJxxPxz0Rxdeq-64" value="" style="endArrow=classic;html=1;rounded=0;exitX=0.75;exitY=0;exitDx=0;exitDy=0;entryX=0.25;entryY=1;entryDx=0;entryDy=0;" edge="1" parent="1">
          <mxGeometry width="50" height="50" relative="1" as="geometry">
            <mxPoint x="450" y="413" as="sourcePoint" />
            <mxPoint x="470" y="380" as="targetPoint" />
          </mxGeometry>
        </mxCell>
        <mxCell id="oJ4jJjxVJxxPxz0Rxdeq-65" value="" style="endArrow=classic;html=1;rounded=0;exitX=0.75;exitY=1;exitDx=0;exitDy=0;entryX=0.25;entryY=0;entryDx=0;entryDy=0;" edge="1" parent="1">
          <mxGeometry width="50" height="50" relative="1" as="geometry">
            <mxPoint x="530" y="380" as="sourcePoint" />
            <mxPoint x="550" y="413" as="targetPoint" />
          </mxGeometry>
        </mxCell>
        <mxCell id="oJ4jJjxVJxxPxz0Rxdeq-66" value="" style="endArrow=classic;html=1;rounded=0;exitX=0.75;exitY=0;exitDx=0;exitDy=0;entryX=0.25;entryY=1;entryDx=0;entryDy=0;" edge="1" parent="1">
          <mxGeometry width="50" height="50" relative="1" as="geometry">
            <mxPoint x="610" y="413" as="sourcePoint" />
            <mxPoint x="630" y="380" as="targetPoint" />
          </mxGeometry>
        </mxCell>
        <mxCell id="oJ4jJjxVJxxPxz0Rxdeq-69" style="edgeStyle=orthogonalEdgeStyle;rounded=0;orthogonalLoop=1;jettySize=auto;html=1;exitX=1;exitY=0.5;exitDx=0;exitDy=0;" edge="1" parent="1" source="oJ4jJjxVJxxPxz0Rxdeq-68" target="oJ4jJjxVJxxPxz0Rxdeq-41">
          <mxGeometry relative="1" as="geometry" />
        </mxCell>
        <mxCell id="oJ4jJjxVJxxPxz0Rxdeq-68" value="" style="ellipse;fillColor=strokeColor;html=1;" vertex="1" parent="1">
          <mxGeometry x="50" y="335" width="30" height="30" as="geometry" />
        </mxCell>
        <mxCell id="oJ4jJjxVJxxPxz0Rxdeq-70" value="" style="ellipse;html=1;shape=endState;fillColor=strokeColor;" vertex="1" parent="1">
          <mxGeometry x="760" y="335" width="30" height="30" as="geometry" />
        </mxCell>
      </root>
    </mxGraphModel>
  </diagram>
</mxfile>
